<?xml version="1.0" standalone="no"?><!DOCTYPE svg PUBLIC "-//W3C//DTD SVG 1.1//EN" "http://www.w3.org/Graphics/SVG/1.1/DTD/svg11.dtd"><svg t="1511437364358" class="icon" style="" viewBox="0 0 1024 1024" version="1.1" xmlns="http://www.w3.org/2000/svg" p-id="6782" xmlns:xlink="http://www.w3.org/1999/xlink" width="200" height="200"><defs><style type="text/css"></style></defs><path d="M799.296 796.032c0 16-12.928 28.928-28.8 28.928a28.864 28.864 0 0 1-28.8-28.928v-0.384h-0.768a230.72 230.72 0 0 0-221.12-203.136c-2.496 0.128-4.928 0.384-7.424 0.384-2.432 0-4.864-0.256-7.296-0.384a230.784 230.784 0 0 0-221.12 203.136h-0.704v0.384a28.8 28.8 0 0 1-28.8 28.928 28.8 28.8 0 0 1-28.736-28.928l-0.256-2.688c0-3.84 0.768-7.36 2.048-10.688A289.856 289.856 0 0 1 398.72 557.44a203.2 203.2 0 0 1-88-167.68c0-112.128 90.304-203.072 201.728-203.072S714.24 277.76 714.24 389.824a203.136 203.136 0 0 1-87.936 167.68 289.856 289.856 0 0 1 171.52 227.84c0.768 2.56 1.28 5.184 1.28 8l0.256 2.688z m-142.848-406.144a144.64 144.64 0 0 0-144.064-145.024 144.64 144.64 0 0 0-144.128 145.024 144.576 144.576 0 0 0 144.128 145.024 144.576 144.576 0 0 0 144.064-145.024zM1023.36 512c0-282.752-229.12-512-511.68-512S0 229.248 0 512a512.128 512.128 0 0 0 400.192 499.84c30.72 7.616 67.456 12.16 111.424 12.16 44.032 0 80.832-4.544 111.488-12.16A512.128 512.128 0 0 0 1023.296 512z m-240.128 349.632v-0.64a441.6 441.6 0 0 1-251.968 92.8h-0.768l-8.704 0.256h-1.28a445.504 445.504 0 0 1-17.536 0h-1.344a437.568 437.568 0 0 1-8.704-0.256h-0.768a441.664 441.664 0 0 1-251.968-92.8v0.64A440.96 440.96 0 0 1 68.224 512c0-244.224 198.528-442.24 443.392-442.24 239.168 0 434.112 188.8 443.136 425.152a440.96 440.96 0 0 1-171.584 366.72z" p-id="6783"></path></svg>