<?xml version="1.0" standalone="no"?><!DOCTYPE svg PUBLIC "-//W3C//DTD SVG 1.1//EN" "http://www.w3.org/Graphics/SVG/1.1/DTD/svg11.dtd"><svg t="1511437339432" class="icon" style="" viewBox="0 0 1024 1024" version="1.1" xmlns="http://www.w3.org/2000/svg" p-id="6526" xmlns:xlink="http://www.w3.org/1999/xlink" width="200" height="200"><defs><style type="text/css"></style></defs><path d="M426.068893 16.256016c80.14474 0 152.638831 32.421721 205.270908 85.060249 52.457906 52.457906 84.879627 125.132619 84.879627 205.270908 0 80.14474-32.421721 152.638831-84.879627 205.270908-52.632078 52.457906-125.126169 84.879627-205.270908 84.879627-80.138289 0-152.813002-32.421721-205.270908-84.879627-52.638528-52.632078-85.060249-125.126169-85.060249-205.270908 0-80.138289 32.421721-152.813002 85.060249-205.270908C273.25589 48.677737 345.930604 16.256016 426.068893 16.256016L426.068893 16.256016zM592.544689 139.924304C549.924253 97.303868 491.092957 70.894293 426.068893 70.894293c-65.204687 0-124.035983 26.409575-166.656419 69.030011-42.620436 42.620436-69.030011 101.632355-69.030011 166.656419s26.409575 123.855361 69.030011 166.656419c42.620436 42.620436 101.451732 68.849389 166.656419 68.849389 65.024065 0 123.855361-26.222502 166.482248-68.849389 42.801058-42.807509 69.030011-101.632355 69.030011-166.656419S635.345748 182.551191 592.544689 139.924304L592.544689 139.924304z" p-id="6527"></path><path d="M74.358372 963.743077c0 15.120675-12.204914 27.319138-27.319138 27.319138-15.114225 0-27.319138-12.204914-27.319138-27.319138 0-111.102129 44.98788-211.644299 117.849666-284.506085 72.855336-72.855336 173.397505-117.843215 284.499635-117.843215 49.000277 0 96.3556 8.927907 140.066221 25.31939 45.355575 16.759179 86.885826 41.530251 122.765176 72.48764 11.2889 9.831019 12.566158 27.138516 2.728688 38.433867-9.831019 11.469522-27.138516 12.753232-38.427416 2.728688-31.144463-26.77082-66.84319-48.084264-106.012448-62.656621-37.517853-14.024039-78.319163-21.668237-121.120222-21.668237-95.981454 0-183.047902 38.975734-245.885146 101.812977C113.334106 780.882248 74.358372 867.761623 74.358372 963.743077L74.358372 963.743077z" p-id="6528"></path><path d="M582.345975 780.546806c-15.120675 0-27.319138-10.682525-27.319138-25.8032 0-14.933602 12.204914-25.8032 27.319138-25.8032l394.150334 0c15.120675 0 27.319138 10.869598 27.319138 25.8032 0 15.120675-12.204914 25.8032-27.319138 25.8032L582.345975 780.546806z" p-id="6529"></path><path d="M582.345975 896.661207c-15.120675 0-27.319138-13.907925-27.319138-29.0286s12.204914-29.0286 27.319138-29.0286l394.150334 0c15.120675 0 27.319138 13.907925 27.319138 29.0286s-12.204914 29.0286-27.319138 29.0286L582.345975 896.661207z" p-id="6530"></path><path d="M582.345975 1006.324808c-15.120675 0-27.319138-10.688976-27.319138-25.8032 0-14.933602 12.204914-25.8032 27.319138-25.8032l394.150334 0c15.120675 0 27.319138 10.869598 27.319138 25.8032 0 15.114225-12.204914 25.8032-27.319138 25.8032L582.345975 1006.324808z" p-id="6531"></path></svg>