<?xml version="1.0" standalone="no"?><!DOCTYPE svg PUBLIC "-//W3C//DTD SVG 1.1//EN" "http://www.w3.org/Graphics/SVG/1.1/DTD/svg11.dtd"><svg t="1511351064079" class="icon" style="" viewBox="0 0 1024 1024" version="1.1" xmlns="http://www.w3.org/2000/svg" p-id="1548" xmlns:xlink="http://www.w3.org/1999/xlink" width="200" height="200"><defs><style type="text/css"></style></defs><path d="M288 128h64v608H288V128zM544 128l0.448 416.192-64 0.064L480 128.064 544 128zM544 128h-64c0-35.296-28.704-64-64-64s-64 28.704-64 64H288c0-70.592 57.408-128 128-128s128 57.408 128 128z" fill="" p-id="1549"></path><path d="M828.736 1024H272L128 832v-237.248l73.376-73.376 45.248 45.248L192 621.248v189.408L304 960h469.12l55.68-395.808-329.184-134.464 24.224-59.264 375.36 153.344L828.736 1024z" fill="" p-id="1550"></path></svg>