<?xml version="1.0" standalone="no"?><!DOCTYPE svg PUBLIC "-//W3C//DTD SVG 1.1//EN" "http://www.w3.org/Graphics/SVG/1.1/DTD/svg11.dtd"><svg t="1511437286476" class="icon" style="" viewBox="0 0 1024 1024" version="1.1" xmlns="http://www.w3.org/2000/svg" p-id="5072" xmlns:xlink="http://www.w3.org/1999/xlink" width="200" height="200"><defs><style type="text/css"></style></defs><path d="M143.959771 737.543314l-58.514286 0c-28.2624 0-51.273143 22.996114-51.273143 51.258514l0 151.537371c0 28.2624 23.010743 51.243886 51.273143 51.243886l58.514286 0c28.2624 0 51.258514-22.981486 51.258514-51.243886L195.218286 788.801829C195.218286 760.539429 172.207543 737.543314 143.959771 737.543314zM165.800229 940.3392c0 12.039314-9.815771 21.825829-21.840457 21.825829l-58.514286 0c-12.039314 0-21.840457-9.786514-21.840457-21.825829L63.605029 788.801829c0-12.024686 9.801143-21.825829 21.840457-21.825829l58.514286 0c12.024686 0 21.840457 9.801143 21.840457 21.825829L165.800229 940.3392zM407.186286 328.309029l-58.514286 0c-28.2624 0-51.273143 23.010743-51.273143 51.273143l0 560.757029c0 28.2624 23.010743 51.243886 51.273143 51.243886l58.514286 0c28.2624 0 51.273143-22.981486 51.273143-51.243886L458.459429 379.582171C458.459429 351.319771 435.448686 328.309029 407.186286 328.309029zM429.026743 940.3392c0 12.039314-9.801143 21.825829-21.840457 21.825829l-58.514286 0c-12.039314 0-21.840457-9.786514-21.840457-21.825829L326.831543 379.582171c0-12.039314 9.801143-21.840457 21.840457-21.840457l58.514286 0c12.039314 0 21.840457 9.786514 21.840457 21.840457L429.026743 940.3392zM670.4128 538.287543l-58.528914 0c-28.2624 0-51.243886 22.996114-51.243886 51.258514l0 350.793143c0 28.2624 22.981486 51.243886 51.243886 51.243886l58.528914 0c28.2624 0 51.273143-22.981486 51.273143-51.243886l0-350.793143C721.685943 561.283657 698.6752 538.287543 670.4128 538.287543zM692.253257 940.3392c0 12.039314-9.801143 21.825829-21.840457 21.825829l-58.528914 0c-12.024686 0-21.825829-9.786514-21.825829-21.825829l0-350.793143c0-12.024686 9.801143-21.840457 21.825829-21.840457l58.528914 0c12.039314 0 21.840457 9.815771 21.840457 21.840457L692.253257 940.3392zM933.639314 40.828343l-58.514286 0c-28.277029 0-51.258514 23.010743-51.258514 51.273143l0 848.237714c0 28.2624 22.981486 51.243886 51.258514 51.243886l58.514286 0c28.277029 0 51.273143-22.981486 51.273143-51.243886L984.912457 92.101486C984.912457 63.839086 961.916343 40.828343 933.639314 40.828343zM955.479771 940.3392c0 12.039314-9.801143 21.825829-21.840457 21.825829l-58.514286 0c-12.039314 0-21.825829-9.786514-21.825829-21.825829L853.2992 92.101486c0-12.039314 9.786514-21.840457 21.825829-21.840457l58.514286 0c12.039314 0 21.840457 9.801143 21.840457 21.840457L955.479771 940.3392z" p-id="5073"></path></svg>